<?xml version="1.0" standalone="no"?><!DOCTYPE svg PUBLIC "-//W3C//DTD SVG 1.1//EN" "http://www.w3.org/Graphics/SVG/1.1/DTD/svg11.dtd"><svg class="icon" width="200px" height="200.00px" viewBox="0 0 1024 1024" version="1.1" xmlns="http://www.w3.org/2000/svg"><path fill="#2c2c2c" d="M81.92 634.88h194.56c12.288 0 20.48 8.192 20.48 20.48s-8.192 20.48-20.48 20.48h-161.792c69.632 155.648 225.28 260.096 401.408 260.096 184.32 0 348.16-114.688 411.648-284.672 4.096-10.24 16.384-16.384 26.624-12.288 10.24 4.096 16.384 16.384 12.288 26.624-69.632 186.368-247.808 311.296-450.56 311.296-180.224 0-342.016-100.352-423.936-253.952v135.168c0 12.288-8.192 20.48-20.48 20.48s-20.48-8.192-20.48-20.48v-204.8c0-6.144 2.048-10.24 6.144-14.336s8.192-6.144 14.336-6.144h10.24z m860.16-245.76h-194.56c-12.288 0-20.48-8.192-20.48-20.48s8.192-20.48 20.48-20.48h161.792c-69.632-155.648-225.28-260.096-401.408-260.096-184.32 0-348.16 114.688-411.648 284.672-4.096 10.24-16.384 16.384-26.624 12.288-10.24-4.096-16.384-16.384-12.288-26.624 69.632-186.368 247.808-311.296 450.56-311.296 180.224 0 342.016 100.352 423.936 253.952v-135.168c0-12.288 8.192-20.48 20.48-20.48s20.48 8.192 20.48 20.48v204.8c0 6.144-2.048 10.24-6.144 14.336s-8.192 6.144-14.336 6.144h-10.24z"  /></svg>