<?xml version="1.0" standalone="no"?><!DOCTYPE svg PUBLIC "-//W3C//DTD SVG 1.1//EN" "http://www.w3.org/Graphics/SVG/1.1/DTD/svg11.dtd"><svg t="1727622097486" class="icon" viewBox="0 0 1024 1024" version="1.1" xmlns="http://www.w3.org/2000/svg" p-id="4254" xmlns:xlink="http://www.w3.org/1999/xlink" width="16" height="16"><path d="M279.272727 384v256c0 53.527273 41.890909 95.418182 95.418182 95.418182s95.418182-41.890909 95.418182-95.418182v-256c0-53.527273-41.890909-95.418182-95.418182-95.418182S279.272727 330.472727 279.272727 384z m144.290909 0v256c0 27.927273-20.945455 48.872727-48.872727 48.872727s-48.872727-20.945455-48.872727-48.872727v-256c0-27.927273 20.945455-48.872727 48.872727-48.872727s48.872727 20.945455 48.872727 48.872727zM553.890909 384v256c0 53.527273 41.890909 95.418182 95.418182 95.418182s95.418182-41.890909 95.418182-95.418182v-256c0-53.527273-41.890909-95.418182-95.418182-95.418182s-95.418182 41.890909-95.418182 95.418182z m144.290909 0v256c0 27.927273-20.945455 48.872727-48.872727 48.872727s-48.872727-20.945455-48.872727-48.872727v-256c0-27.927273 20.945455-48.872727 48.872727-48.872727s48.872727 20.945455 48.872727 48.872727z" fill="" p-id="4255"></path><path d="M923.927273 209.454545c-6.981818-9.309091-23.272727-11.636364-32.581818-4.654545-9.309091 6.981818-11.636364 23.272727-4.654546 32.581818C947.2 316.509091 977.454545 411.927273 977.454545 512c0 256-209.454545 465.454545-465.454545 465.454545S46.545455 768 46.545455 512 256 46.545455 512 46.545455c100.072727 0 195.490909 30.254545 274.618182 90.763636 9.309091 6.981818 25.6 4.654545 32.581818-4.654546s4.654545-25.6-4.654545-32.581818C726.109091 34.909091 621.381818 0 512 0 230.4 0 0 230.4 0 512s230.4 512 512 512 512-230.4 512-512c0-109.381818-34.909091-214.109091-100.072727-302.545455z" fill="" p-id="4256"></path></svg>