<?xml version="1.0" standalone="no"?><!DOCTYPE svg PUBLIC "-//W3C//DTD SVG 1.1//EN" "http://www.w3.org/Graphics/SVG/1.1/DTD/svg11.dtd"><svg class="icon" width="200px" height="200.00px" viewBox="0 0 1024 1024" version="1.1" xmlns="http://www.w3.org/2000/svg"><path fill="#2c2c2c" d="M898.814348 243.370867l-214.894302 0c-5.739724 0-11.160177-2.286066-15.189957-6.299473l-79.658248-79.658248L434.952718 157.413146l-79.658248 79.658248c-4.02978 4.013407-9.530051 6.299473-15.205307 6.299473l-214.894302 0c-11.864212 0-21.521153-9.625218-21.521153-21.441335 0-11.879562 9.657964-21.537526 21.521153-21.537526l206.004841 0 79.658248-79.641875c4.02978-3.997034 9.530051-6.315846 15.189957-6.315846l171.915441 0c5.756097 0 11.17655 2.318812 15.205307 6.315846l79.658248 79.641875L898.814348 200.392006c11.879562 0 21.537526 9.657964 21.537526 21.537526C920.351873 233.745648 910.69391 243.370867 898.814348 243.370867L898.814348 243.370867zM748.436432 909.591297l-472.767464 0c-47.424102 0-85.957721-38.613436-85.957721-85.957721l0-472.767464c0-11.879562 9.577123-21.537526 21.441335-21.537526 11.879562 0 21.457708 9.657964 21.457708 21.537526l0 472.767464c0 23.647583 19.346627 42.930765 43.058678 42.930765l472.767464 0c23.632233 0 42.97886-19.283182 42.97886-42.930765l0-472.767464c0-11.879562 9.577123-21.537526 21.441335-21.537526 11.879562 0 21.537526 9.657964 21.537526 21.537526l0 472.767464C834.394153 870.977861 795.827789 909.591297 748.436432 909.591297L748.436432 909.591297zM404.605549 780.654716c-11.879562 0-21.537526-9.657964-21.537526-21.537526L383.068024 350.866113c0-11.879562 9.657964-21.537526 21.537526-21.537526 11.799744 0 21.441335 9.657964 21.441335 21.537526l0 408.251078C426.046884 770.997776 416.405293 780.654716 404.605549 780.654716L404.605549 780.654716zM619.499851 780.654716c-11.879562 0-21.537526-9.657964-21.537526-21.537526L597.962326 350.866113c0-11.879562 9.657964-21.537526 21.537526-21.537526 11.799744 0 21.441335 9.657964 21.441335 21.537526l0 408.251078C640.941186 770.997776 631.299595 780.654716 619.499851 780.654716L619.499851 780.654716z" /></svg>