<?xml version="1.0" standalone="no"?><!DOCTYPE svg PUBLIC "-//W3C//DTD SVG 1.1//EN" "http://www.w3.org/Graphics/SVG/1.1/DTD/svg11.dtd"><svg t="1725695408199" class="icon" viewBox="0 0 1024 1024" version="1.1" xmlns="http://www.w3.org/2000/svg" p-id="7296" width="16" height="16" xmlns:xlink="http://www.w3.org/1999/xlink"><path d="M518.4 995.2c-264 0-478.4-214.4-478.4-478.4S254.4 38.4 518.4 38.4s478.4 214.4 478.4 478.4-214.4 478.4-478.4 478.4z m0-894.4c-228.8 0-416 187.2-416 416s187.2 416 416 416 416-187.2 416-416c0-230.4-185.6-416-416-416z" fill="#1afa29" p-id="7297"></path><path d="M620.8 652.8c-6.4 0-12.8-1.6-17.6-6.4L476.8 560c-8-6.4-14.4-16-14.4-25.6V316.8c0-17.6 14.4-32 32-32s32 14.4 32 32v200l112 78.4c14.4 9.6 17.6 30.4 8 44.8-4.8 8-16 12.8-25.6 12.8z" fill="#1afa29" p-id="7298"></path></svg>